<?xml version="1.0" encoding="iso-8859-1"?>
<!-- Uploaded to: SVG Repo, www.svgrepo.com, Generator: SVG Repo Mixer Tools -->
<svg fill="#7090a0" version="1.1" id="Layer_1" xmlns="http://www.w3.org/2000/svg" xmlns:xlink="http://www.w3.org/1999/xlink" 
	 viewBox="0 0 512.082 512.082" xml:space="preserve">
<g transform="translate(0 -1)">
	<g>
		<path d="M417.826,509.073c0.007-0.005,0.013-0.01,0.02-0.014c4.369-3.068,7.642-7.78,8.581-13.776
			c0.267-1.529,0.36-3.095,0.282-4.67V107.709c0-5.658-2.248-11.084-6.248-15.085L335.126,7.291
			c-4.701-4.701-10.569-6.585-16.212-6.244H193.168c-5.052-0.305-10.281,1.18-14.694,4.868c-0.002,0.002-0.005,0.004-0.007,0.006
			c-0.514,0.43-1.02,0.88-1.511,1.371L91.623,92.624c-4.001,4.001-6.248,9.427-6.248,15.085v382.903
			c-0.078,1.576,0.015,3.141,0.282,4.67c0.939,5.995,4.212,10.708,8.581,13.776c0.007,0.005,0.013,0.01,0.02,0.014
			c0.242,0.17,0.486,0.335,0.735,0.495c2.514,1.66,5.43,2.815,8.658,3.264c1.428,0.216,2.877,0.281,4.324,0.211h296.134
			c1.447,0.07,2.897,0.005,4.324-0.211c3.228-0.448,6.144-1.604,8.658-3.264C417.339,509.408,417.583,509.242,417.826,509.073z
			 M384.041,116.546V421.25l-42.667-64V73.879L384.041,116.546z M203.455,385.047h105.171l56.886,85.329H146.569L203.455,385.047z
			 M298.706,342.376h-85.331V43.714h85.331V342.376z M170.706,73.881v283.372l-42.664,63.997V116.546L170.706,73.881z"/>
	</g>
</g>
</svg>